# xmcd
#
# Track frame offsets: 
#        150
#        24340
#        50285
#        65872
#        89198
#        111581
#        132785
#        158707
#        181106
#        214851
#
# Disc length: 3233 seconds
#
# Revision: 1
# Processed by: cddbd v1.5.2PL0 Copyright (c) Steve Scherf et al.
# Submitted via: ExactAudioCopy v1.0b1
#
DISCID=8e0c9f0a
DTITLE=Willie Nelson and Wynton Marsalis - Two Men With The Blues
DYEAR=2008
DGENRE=Blues
TTITLE0=Bright Lights Big City
TTITLE1=Night Life
TTITLE2=Caldonia
TTITLE3=Stardust
TTITLE4=Basin Street Blues
TTITLE5=Georgia On My Mind
TTITLE6=Rainy Day Blues
TTITLE7=My Buckets Got A Hole In It
TTITLE8=Ai´nt Nobody Buisiness
TTITLE9=That´s All
EXTD=
EXTT0=
EXTT1=
EXTT2=
EXTT3=
EXTT4=
EXTT5=
EXTT6=
EXTT7=
EXTT8=
EXTT9=
PLAYORDER=
